<svg width="111" height="112" viewBox="0 0 111 112" fill="none" xmlns="http://www.w3.org/2000/svg">
<circle cx="50" cy="50" r="50" fill="url(#paint0_linear_10_106)"/>
<ellipse cx="87.5" cy="68" rx="23.5" ry="22" fill="url(#paint1_linear_10_106)"/>
<ellipse cx="72.5" cy="74" rx="22.5" ry="16" fill="url(#paint2_linear_10_106)"/>
<rect x="76" y="95" width="5" height="17" rx="2.5" fill="url(#paint3_linear_10_106)"/>
<rect x="85" y="86" width="5" height="17" rx="2.5" fill="url(#paint4_linear_10_106)"/>
<rect x="94" y="77" width="5" height="17" rx="2.5" fill="url(#paint5_linear_10_106)"/>
<rect x="106" y="91" width="5" height="17" rx="2.5" fill="url(#paint6_linear_10_106)"/>
<rect x="61" y="83" width="5" height="17" rx="2.5" fill="url(#paint7_linear_10_106)"/>
<rect x="76" y="68" width="5" height="17" rx="2.5" fill="url(#paint8_linear_10_106)"/>
<defs>
<linearGradient id="paint0_linear_10_106" x1="24.5" y1="4.5" x2="56" y2="64" gradientUnits="userSpaceOnUse">
<stop stop-color="#FFBE32"/>
<stop offset="1" stop-color="#FF9D00"/>
</linearGradient>
<linearGradient id="paint1_linear_10_106" x1="87.5" y1="46" x2="87.5" y2="90" gradientUnits="userSpaceOnUse">
<stop stop-color="#B4B4B4"/>
<stop offset="1" stop-color="#747474"/>
</linearGradient>
<linearGradient id="paint2_linear_10_106" x1="72.5" y1="58" x2="72.5" y2="90" gradientUnits="userSpaceOnUse">
<stop stop-color="#C0C0C0"/>
<stop offset="1" stop-color="#848484"/>
</linearGradient>
<linearGradient id="paint3_linear_10_106" x1="78.5" y1="112" x2="78.5" y2="95" gradientUnits="userSpaceOnUse">
<stop stop-color="#2057CE"/>
<stop offset="1" stop-color="#638EEA"/>
</linearGradient>
<linearGradient id="paint4_linear_10_106" x1="87.5" y1="103" x2="87.5" y2="86" gradientUnits="userSpaceOnUse">
<stop stop-color="#2057CE"/>
<stop offset="1" stop-color="#638EEA"/>
</linearGradient>
<linearGradient id="paint5_linear_10_106" x1="96.5" y1="94" x2="96.5" y2="77" gradientUnits="userSpaceOnUse">
<stop stop-color="#2057CE"/>
<stop offset="1" stop-color="#638EEA"/>
</linearGradient>
<linearGradient id="paint6_linear_10_106" x1="108.5" y1="108" x2="108.5" y2="91" gradientUnits="userSpaceOnUse">
<stop stop-color="#2057CE"/>
<stop offset="1" stop-color="#638EEA"/>
</linearGradient>
<linearGradient id="paint7_linear_10_106" x1="63.5" y1="100" x2="63.5" y2="83" gradientUnits="userSpaceOnUse">
<stop stop-color="#2057CE"/>
<stop offset="1" stop-color="#638EEA"/>
</linearGradient>
<linearGradient id="paint8_linear_10_106" x1="78.5" y1="85" x2="78.5" y2="68" gradientUnits="userSpaceOnUse">
<stop stop-color="#2057CE"/>
<stop offset="1" stop-color="#638EEA"/>
</linearGradient>
</defs>
</svg>
