<svg width="109" height="112" viewBox="0 0 109 112" fill="none" xmlns="http://www.w3.org/2000/svg">
<path d="M100 50C100 77.6142 77.6142 100 50 100C22.3858 100 0 77.6142 0 50C0 22.3858 22.3858 0 50 0C77.6142 0 100 22.3858 100 50Z" fill="url(#paint0_linear_10_120)"/>
<circle cx="25" cy="72.561" r="5.4878" fill="#CDCDCD"/>
<circle cx="80.4878" cy="24.3903" r="3.65854" fill="#CDCDCD"/>
<circle cx="84.7561" cy="32.3171" r="1.82927" fill="#CDCDCD"/>
<circle cx="28.6586" cy="45.7317" r="1.82927" fill="#CDCDCD"/>
<circle cx="38.4146" cy="56.7073" r="9.14634" fill="#CDCDCD"/>
<ellipse cx="85.5" cy="68" rx="23.5" ry="22" fill="url(#paint1_linear_10_120)"/>
<ellipse cx="70.5" cy="74" rx="22.5" ry="16" fill="url(#paint2_linear_10_120)"/>
<rect x="74" y="95" width="5" height="17" rx="2.5" fill="url(#paint3_linear_10_120)"/>
<rect x="83" y="86" width="5" height="17" rx="2.5" fill="url(#paint4_linear_10_120)"/>
<rect x="92" y="77" width="5" height="17" rx="2.5" fill="url(#paint5_linear_10_120)"/>
<rect x="104" y="91" width="5" height="17" rx="2.5" fill="url(#paint6_linear_10_120)"/>
<rect x="59" y="83" width="5" height="17" rx="2.5" fill="url(#paint7_linear_10_120)"/>
<rect x="74" y="68" width="5" height="17" rx="2.5" fill="url(#paint8_linear_10_120)"/>
<defs>
<linearGradient id="paint0_linear_10_120" x1="23.1707" y1="8.53659" x2="83.5366" y2="88.4146" gradientUnits="userSpaceOnUse">
<stop stop-color="white"/>
<stop offset="1" stop-color="#D5D5D5"/>
</linearGradient>
<linearGradient id="paint1_linear_10_120" x1="85.5" y1="46" x2="85.5" y2="90" gradientUnits="userSpaceOnUse">
<stop stop-color="#B4B4B4"/>
<stop offset="1" stop-color="#747474"/>
</linearGradient>
<linearGradient id="paint2_linear_10_120" x1="70.5" y1="58" x2="70.5" y2="90" gradientUnits="userSpaceOnUse">
<stop stop-color="#C0C0C0"/>
<stop offset="1" stop-color="#848484"/>
</linearGradient>
<linearGradient id="paint3_linear_10_120" x1="76.5" y1="112" x2="76.5" y2="95" gradientUnits="userSpaceOnUse">
<stop stop-color="#2057CE"/>
<stop offset="1" stop-color="#638EEA"/>
</linearGradient>
<linearGradient id="paint4_linear_10_120" x1="85.5" y1="103" x2="85.5" y2="86" gradientUnits="userSpaceOnUse">
<stop stop-color="#2057CE"/>
<stop offset="1" stop-color="#638EEA"/>
</linearGradient>
<linearGradient id="paint5_linear_10_120" x1="94.5" y1="94" x2="94.5" y2="77" gradientUnits="userSpaceOnUse">
<stop stop-color="#2057CE"/>
<stop offset="1" stop-color="#638EEA"/>
</linearGradient>
<linearGradient id="paint6_linear_10_120" x1="106.5" y1="108" x2="106.5" y2="91" gradientUnits="userSpaceOnUse">
<stop stop-color="#2057CE"/>
<stop offset="1" stop-color="#638EEA"/>
</linearGradient>
<linearGradient id="paint7_linear_10_120" x1="61.5" y1="100" x2="61.5" y2="83" gradientUnits="userSpaceOnUse">
<stop stop-color="#2057CE"/>
<stop offset="1" stop-color="#638EEA"/>
</linearGradient>
<linearGradient id="paint8_linear_10_120" x1="76.5" y1="85" x2="76.5" y2="68" gradientUnits="userSpaceOnUse">
<stop stop-color="#2057CE"/>
<stop offset="1" stop-color="#638EEA"/>
</linearGradient>
</defs>
</svg>
