<svg width="116" height="119" viewBox="0 0 116 119" fill="none" xmlns="http://www.w3.org/2000/svg">
<path d="M100 50C100 77.6142 77.6142 100 50 100C22.3858 100 0 77.6142 0 50C0 22.3858 22.3858 0 50 0C77.6142 0 100 22.3858 100 50Z" fill="url(#paint0_linear_10_52)"/>
<circle cx="25" cy="72.561" r="5.4878" fill="#CDCDCD"/>
<circle cx="80.4878" cy="24.3903" r="3.65854" fill="#CDCDCD"/>
<circle cx="84.7561" cy="32.3171" r="1.82927" fill="#CDCDCD"/>
<circle cx="28.6585" cy="45.7317" r="1.82927" fill="#CDCDCD"/>
<circle cx="38.4146" cy="56.7073" r="9.14634" fill="#CDCDCD"/>
<g filter="url(#filter0_d_10_52)">
<ellipse cx="86.5" cy="69" rx="23.5" ry="22" fill="url(#paint1_linear_10_52)"/>
<ellipse cx="71.5" cy="75" rx="22.5" ry="16" fill="url(#paint2_linear_10_52)"/>
<rect x="71" y="96" width="5" height="17" rx="2.5" fill="url(#paint3_linear_10_52)"/>
<rect x="80" y="87" width="5" height="17" rx="2.5" fill="url(#paint4_linear_10_52)"/>
<rect x="89" y="78" width="5" height="17" rx="2.5" fill="url(#paint5_linear_10_52)"/>
<rect x="71" y="69" width="5" height="17" rx="2.5" fill="url(#paint6_linear_10_52)"/>
</g>
<defs>
<filter id="filter0_d_10_52" x="39" y="37" width="77" height="82" filterUnits="userSpaceOnUse" color-interpolation-filters="sRGB">
<feFlood flood-opacity="0" result="BackgroundImageFix"/>
<feColorMatrix in="SourceAlpha" type="matrix" values="0 0 0 0 0 0 0 0 0 0 0 0 0 0 0 0 0 0 127 0" result="hardAlpha"/>
<feOffset dx="-2" dy="-2"/>
<feGaussianBlur stdDeviation="4"/>
<feComposite in2="hardAlpha" operator="out"/>
<feColorMatrix type="matrix" values="0 0 0 0 0 0 0 0 0 0 0 0 0 0 0 0 0 0 0.1 0"/>
<feBlend mode="normal" in2="BackgroundImageFix" result="effect1_dropShadow_10_52"/>
<feBlend mode="normal" in="SourceGraphic" in2="effect1_dropShadow_10_52" result="shape"/>
</filter>
<linearGradient id="paint0_linear_10_52" x1="23.1707" y1="8.53659" x2="83.5366" y2="88.4146" gradientUnits="userSpaceOnUse">
<stop stop-color="white"/>
<stop offset="1" stop-color="#D5D5D5"/>
</linearGradient>
<linearGradient id="paint1_linear_10_52" x1="86.5" y1="47" x2="86.5" y2="91" gradientUnits="userSpaceOnUse">
<stop stop-color="#EBEBEB"/>
<stop offset="1" stop-color="#E0E0E0"/>
</linearGradient>
<linearGradient id="paint2_linear_10_52" x1="71.5" y1="59" x2="71.5" y2="91" gradientUnits="userSpaceOnUse">
<stop stop-color="#F9F9F9"/>
<stop offset="1" stop-color="#DBDBDB"/>
</linearGradient>
<linearGradient id="paint3_linear_10_52" x1="73.5" y1="113" x2="73.5" y2="96" gradientUnits="userSpaceOnUse">
<stop stop-color="#2057CE"/>
<stop offset="1" stop-color="#638EEA"/>
</linearGradient>
<linearGradient id="paint4_linear_10_52" x1="82.5" y1="104" x2="82.5" y2="87" gradientUnits="userSpaceOnUse">
<stop stop-color="#2057CE"/>
<stop offset="1" stop-color="#638EEA"/>
</linearGradient>
<linearGradient id="paint5_linear_10_52" x1="91.5" y1="95" x2="91.5" y2="78" gradientUnits="userSpaceOnUse">
<stop stop-color="#2057CE"/>
<stop offset="1" stop-color="#638EEA"/>
</linearGradient>
<linearGradient id="paint6_linear_10_52" x1="73.5" y1="86" x2="73.5" y2="69" gradientUnits="userSpaceOnUse">
<stop stop-color="#2057CE"/>
<stop offset="1" stop-color="#638EEA"/>
</linearGradient>
</defs>
</svg>
