<svg width="147" height="100" viewBox="0 0 147 100" fill="none" xmlns="http://www.w3.org/2000/svg">
<path d="M124.634 50C124.634 77.6142 102.248 100 74.6342 100C47.0199 100 24.6342 77.6142 24.6342 50C24.6342 22.3858 47.0199 0 74.6342 0C102.248 0 124.634 22.3858 124.634 50Z" fill="url(#paint0_linear_8_117)"/>
<circle cx="49.6341" cy="72.561" r="5.4878" fill="#CDCDCD"/>
<circle cx="105.122" cy="24.3902" r="3.65854" fill="#CDCDCD"/>
<circle cx="109.39" cy="32.3171" r="1.82927" fill="#CDCDCD"/>
<circle cx="53.2927" cy="45.7317" r="1.82927" fill="#CDCDCD"/>
<circle cx="63.0488" cy="56.7073" r="9.14634" fill="#CDCDCD"/>
<g filter="url(#filter0_d_8_117)">
<ellipse cx="119.146" cy="55.5749" rx="21.3415" ry="12.1951" fill="url(#paint1_linear_8_117)"/>
<ellipse cx="108.344" cy="72.9965" rx="29.531" ry="20.9059" fill="url(#paint2_linear_8_117)"/>
<ellipse cx="89.4939" cy="78.6981" rx="28.2744" ry="15.2043" fill="url(#paint3_linear_8_117)"/>
<ellipse cx="26.9861" cy="35.2787" rx="16.9861" ry="10.8885" fill="url(#paint4_linear_8_117)"/>
</g>
<defs>
<filter id="filter0_d_8_117" x="0" y="14.3902" width="146.488" height="85.5122" filterUnits="userSpaceOnUse" color-interpolation-filters="sRGB">
<feFlood flood-opacity="0" result="BackgroundImageFix"/>
<feColorMatrix in="SourceAlpha" type="matrix" values="0 0 0 0 0 0 0 0 0 0 0 0 0 0 0 0 0 0 127 0" result="hardAlpha"/>
<feOffset dx="-2" dy="-2"/>
<feGaussianBlur stdDeviation="4"/>
<feComposite in2="hardAlpha" operator="out"/>
<feColorMatrix type="matrix" values="0 0 0 0 0 0 0 0 0 0 0 0 0 0 0 0 0 0 0.1 0"/>
<feBlend mode="normal" in2="BackgroundImageFix" result="effect1_dropShadow_8_117"/>
<feBlend mode="normal" in="SourceGraphic" in2="effect1_dropShadow_8_117" result="shape"/>
</filter>
<linearGradient id="paint0_linear_8_117" x1="47.8049" y1="8.53659" x2="108.171" y2="88.4146" gradientUnits="userSpaceOnUse">
<stop stop-color="white"/>
<stop offset="1" stop-color="#D5D5D5"/>
</linearGradient>
<linearGradient id="paint1_linear_8_117" x1="119.146" y1="43.3798" x2="119.146" y2="67.77" gradientUnits="userSpaceOnUse">
<stop stop-color="#EFEFEF"/>
<stop offset="1" stop-color="#BCBCBC"/>
</linearGradient>
<linearGradient id="paint2_linear_8_117" x1="108.344" y1="52.0906" x2="108.344" y2="93.9025" gradientUnits="userSpaceOnUse">
<stop stop-color="#EBEBEB"/>
<stop offset="1" stop-color="#E0E0E0"/>
</linearGradient>
<linearGradient id="paint3_linear_8_117" x1="89.4939" y1="63.4938" x2="89.4939" y2="93.9025" gradientUnits="userSpaceOnUse">
<stop stop-color="#F9F9F9"/>
<stop offset="1" stop-color="#DBDBDB"/>
</linearGradient>
<linearGradient id="paint4_linear_8_117" x1="26.9861" y1="24.3902" x2="26.9861" y2="46.1672" gradientUnits="userSpaceOnUse">
<stop stop-color="#F9F9F9"/>
<stop offset="1" stop-color="#DBDBDB"/>
</linearGradient>
</defs>
</svg>
