<svg width="114" height="112" viewBox="0 0 114 112" fill="none" xmlns="http://www.w3.org/2000/svg">
<path d="M100 50C100 77.6142 77.6142 100 50 100C22.3858 100 0 77.6142 0 50C0 22.3858 22.3858 0 50 0C77.6142 0 100 22.3858 100 50Z" fill="url(#paint0_linear_10_163)"/>
<circle cx="25" cy="72.561" r="5.4878" fill="#CDCDCD"/>
<circle cx="80.4878" cy="24.3903" r="3.65854" fill="#CDCDCD"/>
<circle cx="84.7561" cy="32.3171" r="1.82927" fill="#CDCDCD"/>
<circle cx="28.6586" cy="45.7317" r="1.82927" fill="#CDCDCD"/>
<circle cx="38.4146" cy="56.7073" r="9.14634" fill="#CDCDCD"/>
<ellipse cx="90.5" cy="68" rx="23.5" ry="22" fill="url(#paint1_linear_10_163)"/>
<ellipse cx="75.5" cy="74" rx="22.5" ry="16" fill="url(#paint2_linear_10_163)"/>
<rect x="79" y="95" width="5" height="17" rx="2.5" fill="url(#paint3_linear_10_163)"/>
<rect x="88" y="86" width="5" height="17" rx="2.5" fill="url(#paint4_linear_10_163)"/>
<rect x="79" y="68" width="5" height="17" rx="2.5" fill="url(#paint5_linear_10_163)"/>
<path d="M103.351 81.078C103.747 80.0404 105.286 80.3237 105.286 81.434V85.5C105.286 86.0523 105.733 86.5 106.286 86.5H108.549C109.249 86.5 109.733 87.2015 109.483 87.856L105.649 97.922C105.253 98.9596 103.714 98.6763 103.714 97.566V93.5C103.714 92.9477 103.267 92.5 102.714 92.5H100.451C99.7506 92.5 99.2672 91.7985 99.5166 91.144L103.351 81.078Z" fill="url(#paint6_linear_10_163)"/>
<path d="M67.4937 82.0934C67.8882 81.0549 69.4286 81.3376 69.4286 82.4485V88.4444C69.4286 88.9967 69.8763 89.4444 70.4286 89.4444H73.5504C74.2504 89.4444 74.7338 90.1452 74.4852 90.7996L69.5063 103.907C69.1118 104.945 67.5714 104.662 67.5714 103.552V97.5556C67.5714 97.0033 67.1237 96.5556 66.5714 96.5556H63.4496C62.7496 96.5556 62.2662 95.8548 62.5148 95.2004L67.4937 82.0934Z" fill="url(#paint7_linear_10_163)"/>
<defs>
<linearGradient id="paint0_linear_10_163" x1="23.1707" y1="8.53659" x2="83.5366" y2="88.4146" gradientUnits="userSpaceOnUse">
<stop stop-color="white"/>
<stop offset="1" stop-color="#D5D5D5"/>
</linearGradient>
<linearGradient id="paint1_linear_10_163" x1="90.5" y1="46" x2="90.5" y2="90" gradientUnits="userSpaceOnUse">
<stop stop-color="#B4B4B4"/>
<stop offset="1" stop-color="#747474"/>
</linearGradient>
<linearGradient id="paint2_linear_10_163" x1="75.5" y1="58" x2="75.5" y2="90" gradientUnits="userSpaceOnUse">
<stop stop-color="#C0C0C0"/>
<stop offset="1" stop-color="#848484"/>
</linearGradient>
<linearGradient id="paint3_linear_10_163" x1="81.5" y1="112" x2="81.5" y2="95" gradientUnits="userSpaceOnUse">
<stop stop-color="#2057CE"/>
<stop offset="1" stop-color="#638EEA"/>
</linearGradient>
<linearGradient id="paint4_linear_10_163" x1="90.5" y1="103" x2="90.5" y2="86" gradientUnits="userSpaceOnUse">
<stop stop-color="#2057CE"/>
<stop offset="1" stop-color="#638EEA"/>
</linearGradient>
<linearGradient id="paint5_linear_10_163" x1="81.5" y1="85" x2="81.5" y2="68" gradientUnits="userSpaceOnUse">
<stop stop-color="#2057CE"/>
<stop offset="1" stop-color="#638EEA"/>
</linearGradient>
<linearGradient id="paint6_linear_10_163" x1="104.5" y1="76" x2="104.5" y2="103" gradientUnits="userSpaceOnUse">
<stop stop-color="#F4E045"/>
<stop offset="1" stop-color="#EAE097"/>
</linearGradient>
<linearGradient id="paint7_linear_10_163" x1="68.5" y1="77" x2="68.5" y2="109" gradientUnits="userSpaceOnUse">
<stop stop-color="#F4E045"/>
<stop offset="1" stop-color="#EAE097"/>
</linearGradient>
</defs>
</svg>
